<svg width="28" height="28" viewBox="0 0 28 28" fill="none" xmlns="http://www.w3.org/2000/svg">
<circle cx="14" cy="14" r="14" fill="#62D33E"/>
<g clip-path="url(#clip0_3001_527)">
<path d="M9.43036 6.53345C7.82546 6.53345 6.5332 7.82571 6.5332 9.43061V19.503C6.5332 21.1079 7.82546 22.4001 9.43036 22.4001H14.8895V16.1972H13.2493V13.964H14.8895V12.056C14.8895 10.557 15.8586 9.18071 18.0911 9.18071C18.995 9.18071 19.6634 9.26748 19.6634 9.26748L19.6108 11.353C19.6108 11.353 18.9291 11.3465 18.1853 11.3465C17.3802 11.3465 17.2511 11.7175 17.2511 12.3332V13.964H19.6748L19.5692 16.1973H17.2511V22.4001H19.5027C21.1076 22.4001 22.3999 21.1079 22.3999 19.503V9.43062C22.3999 7.82572 21.1076 6.53346 19.5027 6.53346H9.43035L9.43036 6.53345Z" fill="white"/>
</g>
<defs>
<clipPath id="clip0_3001_527">
<rect width="15.8667" height="15.8667" fill="white" transform="translate(6.5332 6.53345)"/>
</clipPath>
</defs>
</svg>
