<svg width="15" height="15" viewBox="0 0 15 15" fill="none" xmlns="http://www.w3.org/2000/svg">
<path d="M11.263 8.83644C10.971 8.53236 10.6188 8.36979 10.2455 8.36979C9.87515 8.36979 9.5199 8.52935 9.21583 8.83343L8.26448 9.78177C8.1862 9.73962 8.10792 9.70048 8.03266 9.66134C7.92428 9.60715 7.82192 9.55597 7.73461 9.50178C6.84347 8.93579 6.03361 8.19819 5.25687 7.24382C4.88055 6.76814 4.62766 6.36773 4.44401 5.9613C4.69088 5.7355 4.91969 5.50068 5.14247 5.27488C5.22677 5.19058 5.31107 5.10328 5.39536 5.01898C6.02759 4.38675 6.02759 3.56786 5.39536 2.93563L4.57347 2.11374C4.48014 2.02041 4.3838 1.92407 4.29348 1.82773C4.11284 1.64107 3.92317 1.44839 3.72748 1.26776C3.43545 0.978737 3.08622 0.825195 2.71893 0.825195C2.35163 0.825195 1.99638 0.978737 1.69532 1.26776C1.69231 1.27077 1.69231 1.27077 1.6893 1.27378L0.665691 2.30642C0.280333 2.69178 0.060558 3.16143 0.0123882 3.70635C-0.0598665 4.58545 0.199046 5.40434 0.397747 5.94023C0.885466 7.25586 1.61403 8.47516 2.70087 9.78177C4.01951 11.3563 5.60611 12.5997 7.41849 13.4758C8.11094 13.8039 9.03519 14.1923 10.0678 14.2585C10.1311 14.2616 10.1973 14.2646 10.2575 14.2646C10.953 14.2646 11.537 14.0147 11.9946 13.5179C11.9976 13.5119 12.0037 13.5089 12.0067 13.5029C12.1632 13.3132 12.3439 13.1416 12.5335 12.958C12.663 12.8345 12.7954 12.7051 12.9249 12.5696C13.223 12.2595 13.3795 11.8982 13.3795 11.5279C13.3795 11.1546 13.2199 10.7963 12.9159 10.4953L11.263 8.83644ZM12.3408 12.0066C12.3378 12.0066 12.3378 12.0096 12.3408 12.0066C12.2234 12.1331 12.103 12.2475 11.9736 12.3739C11.7779 12.5606 11.5792 12.7563 11.3925 12.976C11.0884 13.3012 10.7302 13.4547 10.2605 13.4547C10.2154 13.4547 10.1672 13.4547 10.122 13.4517C9.22787 13.3945 8.39694 13.0453 7.77375 12.7472C6.06974 11.9223 4.57347 10.7512 3.33008 9.26695C2.30346 8.02959 1.61704 6.88556 1.16244 5.65723C0.882455 4.90759 0.780094 4.32353 0.825254 3.77259C0.85536 3.42034 0.990837 3.12831 1.24072 2.87843L2.26734 1.85181C2.41486 1.71333 2.57141 1.63806 2.72495 1.63806C2.91462 1.63806 3.06816 1.75246 3.1645 1.8488C3.16751 1.85181 3.17052 1.85482 3.17353 1.85784C3.35718 2.02944 3.53179 2.20707 3.71544 2.39674C3.80877 2.49307 3.90511 2.58941 4.00145 2.68876L4.82335 3.51066C5.14247 3.82979 5.14247 4.12483 4.82335 4.44395C4.73604 4.53126 4.65174 4.61857 4.56443 4.70286C4.31154 4.96178 4.07069 5.20263 3.80877 5.43745C3.80275 5.44348 3.79673 5.44649 3.79372 5.45251C3.5348 5.71142 3.58297 5.96431 3.63717 6.13592C3.64018 6.14495 3.64319 6.15398 3.6462 6.16301C3.85995 6.68084 4.16101 7.16856 4.61862 7.7496L4.62164 7.75262C5.45256 8.77622 6.32865 9.57404 7.29506 10.1852C7.41849 10.2635 7.54494 10.3267 7.66536 10.3869C7.77375 10.4411 7.87611 10.4923 7.96341 10.5465C7.97546 10.5525 7.9875 10.5615 7.99954 10.5675C8.1019 10.6187 8.19824 10.6428 8.29759 10.6428C8.54747 10.6428 8.70403 10.4863 8.75521 10.4351L9.78483 9.40544C9.8872 9.30308 10.0498 9.17965 10.2394 9.17965C10.4261 9.17965 10.5796 9.29706 10.673 9.39942C10.676 9.40243 10.676 9.40243 10.679 9.40544L12.3378 11.0643C12.6479 11.3714 12.6479 11.6875 12.3408 12.0066Z" fill="#62D33E"/>
<path d="M7.69832 3.39293C8.4871 3.5254 9.20362 3.89872 9.77564 4.47073C10.3477 5.04275 10.718 5.75927 10.8534 6.54805C10.8866 6.74676 11.0582 6.88524 11.2539 6.88524C11.2779 6.88524 11.299 6.88223 11.3231 6.87922C11.5459 6.84309 11.6934 6.63235 11.6573 6.40957C11.4947 5.4552 11.0431 4.58514 10.3537 3.89571C9.66425 3.20628 8.79418 2.75468 7.83981 2.59211C7.61703 2.55598 7.4093 2.7035 7.37016 2.92328C7.33102 3.14305 7.47553 3.35681 7.69832 3.39293Z" fill="#62D33E"/>
<path d="M14.2372 6.29235C13.9693 4.72081 13.2287 3.29077 12.0907 2.15276C10.9527 1.01475 9.52262 0.274141 7.95109 0.00619628C7.73131 -0.0329417 7.52358 0.117589 7.48444 0.337364C7.44831 0.560149 7.59583 0.767881 7.81862 0.807019C9.22156 1.04486 10.5011 1.7102 11.5187 2.72478C12.5362 3.74237 13.1986 5.02188 13.4364 6.42482C13.4695 6.62352 13.6411 6.76201 13.8368 6.76201C13.8609 6.76201 13.882 6.759 13.9061 6.75599C14.1258 6.72287 14.2764 6.51213 14.2372 6.29235Z" fill="#62D33E"/>
</svg>
