<svg width="28" height="28" viewBox="0 0 28 28" fill="none" xmlns="http://www.w3.org/2000/svg">
<circle cx="14" cy="14" r="14" fill="white"/>
<path d="M14 0C16.7689 0 19.4757 0.821086 21.778 2.35943C24.0803 3.89776 25.8747 6.08427 26.9343 8.64243C27.9939 11.2006 28.2712 14.0155 27.731 16.7313C27.1908 19.447 25.8574 21.9416 23.8995 23.8995C21.9416 25.8574 19.447 27.1908 16.7313 27.731C14.0155 28.2712 11.2006 27.9939 8.64243 26.9343C6.08427 25.8747 3.89776 24.0803 2.35943 21.778C0.821086 19.4757 0 16.7689 0 14C0.00529068 10.2886 1.48199 6.73071 4.10635 4.10635C6.73071 1.48199 10.2886 0.00529068 14 0V0ZM6.0375 14V16.375C6.0375 17.1662 6.0375 17.9575 6.0375 18.75C6.05 20.6575 7.365 21.9625 9.275 21.9637C12.4317 21.9637 15.5875 21.9637 18.7425 21.9637C20.6437 21.9637 21.9612 20.6437 21.9637 18.735C21.9637 15.5792 21.9637 12.4233 21.9637 9.2675C21.9672 9.0283 21.9479 8.78931 21.9062 8.55375C21.615 7.105 20.4712 6.07125 18.9925 6.05375C15.66 6.01875 12.3275 6.0425 8.9925 6.045C8.8365 6.04723 8.68112 6.06524 8.52875 6.09875C7.01625 6.41875 6.0475 7.62375 6.0375 9.22375C6.0275 10.8237 6.0375 12.4075 6.0375 14Z" fill="#62D33E"/>
<path d="M18.078 12.385H20.3917C20.3992 12.51 20.4117 12.6275 20.4117 12.7475C20.4117 14.7258 20.4117 16.7042 20.4117 18.6825C20.4117 19.825 19.823 20.4075 18.673 20.4075C15.5597 20.4075 12.4463 20.4075 9.33299 20.4075C8.18049 20.4075 7.59549 19.8275 7.59424 18.6825C7.59424 16.7033 7.59424 14.725 7.59424 12.7475V12.39H9.92549C9.30049 14.5225 9.73924 16.335 11.598 17.6063C13.1355 18.6575 14.8092 18.665 16.3567 17.6375C18.2567 16.375 18.7055 14.5425 18.078 12.385Z" fill="#62D33E"/>
<path d="M16.8043 13.9913C16.806 14.5461 16.6432 15.089 16.3364 15.5513C16.0295 16.0135 15.5925 16.3744 15.0805 16.5883C14.5686 16.8022 14.0047 16.8594 13.4602 16.7528C12.9157 16.6461 12.4151 16.3804 12.0217 15.9892C11.6282 15.598 11.3596 15.099 11.2498 14.5551C11.14 14.0112 11.194 13.447 11.4049 12.9339C11.6158 12.4207 11.9741 11.9816 12.4346 11.6721C12.8951 11.3625 13.437 11.1966 13.9918 11.1951C14.7344 11.1967 15.4464 11.4913 15.973 12.0149C16.4997 12.5385 16.7984 13.2487 16.8043 13.9913Z" fill="#62D33E"/>
<path d="M20.1023 10.565H17.4473V7.89746H20.1023V10.565Z" fill="#62D33E"/>
</svg>
