<svg width="12" height="12" viewBox="0 0 12 12" fill="none" xmlns="http://www.w3.org/2000/svg">
<path d="M11.3042 4.32187C10.8719 3.95911 10.2251 4.01587 9.86298 4.44737L8.88976 5.59903V2.25951C8.88976 1.97961 8.77337 1.70856 8.57045 1.51583L7.27165 0.282062C7.08019 0.100183 6.82931 0 6.56524 0H1.02574C0.460158 0 0 0.460158 0 1.02574V10.6449C0 11.2105 0.460158 11.6707 1.02574 11.6707H7.86404C8.42962 11.6707 8.88978 11.2105 8.88978 10.6449V8.77665C8.93179 8.72689 11.4228 5.77624 11.4307 5.76696C11.7951 5.33268 11.7386 4.68631 11.3042 4.32187ZM6.83829 0.813545C8.20628 2.11303 8.10913 2.01804 8.13477 2.05151H6.83829V0.813545ZM8.20593 10.6449C8.20593 10.8335 8.05255 10.9868 7.86401 10.9868H1.02574C0.837206 10.9868 0.68382 10.8335 0.68382 10.6449V1.02574C0.68382 0.837206 0.837206 0.68382 1.02574 0.68382H6.15445V2.39338C6.15445 2.58221 6.30754 2.7353 6.49637 2.7353H8.20593V6.4082C8.05907 6.58199 6.87978 7.97746 6.75231 8.12829C6.65049 8.24965 6.5772 8.39524 6.54041 8.54931L6.22265 9.87953C6.19259 10.0055 6.23624 10.1377 6.33544 10.2209C6.43474 10.3042 6.57248 10.3241 6.6912 10.2727L7.94605 9.72876C8.04026 9.68791 8.12814 9.63243 8.20593 9.56576V10.6449ZM7.39269 8.43001L7.91646 8.86949L7.79998 9.00744C7.76609 9.04788 7.72253 9.08036 7.67409 9.10136L7.04668 9.37332L7.20559 8.70822C7.21785 8.65686 7.24226 8.60833 7.27543 8.5688L7.39269 8.43001ZM8.35757 8.34696L7.83404 7.90769C7.88715 7.84484 9.60515 5.81187 9.72395 5.67129L10.2464 6.10966L8.35757 8.34696ZM10.9075 5.32661L10.6876 5.58716L10.1654 5.149L10.3861 4.88784C10.5066 4.74416 10.7214 4.72542 10.8647 4.84569C11.0109 4.9683 11.027 5.18424 10.9075 5.32661Z" fill="#62D33E"/>
<path d="M5.12874 2.05078H1.7096C1.52077 2.05078 1.36768 2.20387 1.36768 2.3927C1.36768 2.58153 1.52077 2.73462 1.7096 2.73462H5.12874C5.31758 2.73462 5.47067 2.58153 5.47067 2.3927C5.47067 2.20387 5.31758 2.05078 5.12874 2.05078Z" fill="#62D33E"/>
<path d="M7.18023 4.12476H1.7096C1.52077 4.12476 1.36768 4.27785 1.36768 4.46668C1.36768 4.65551 1.52077 4.8086 1.7096 4.8086H7.18023C7.36906 4.8086 7.52215 4.65551 7.52215 4.46668C7.52215 4.27785 7.36906 4.12476 7.18023 4.12476Z" fill="#62D33E"/>
<path d="M7.18023 6.17627H1.7096C1.52077 6.17627 1.36768 6.32936 1.36768 6.51819C1.36768 6.70702 1.52077 6.86011 1.7096 6.86011H7.18023C7.36906 6.86011 7.52215 6.70702 7.52215 6.51819C7.52215 6.32934 7.36906 6.17627 7.18023 6.17627Z" fill="#62D33E"/>
<path d="M5.12874 8.22754H1.7096C1.52077 8.22754 1.36768 8.38063 1.36768 8.56946C1.36768 8.75829 1.52077 8.91138 1.7096 8.91138H5.12874C5.31758 8.91138 5.47067 8.75829 5.47067 8.56946C5.47067 8.38063 5.31758 8.22754 5.12874 8.22754Z" fill="#62D33E"/>
</svg>
