<svg width="11" height="16" viewBox="0 0 11 16" fill="none" xmlns="http://www.w3.org/2000/svg">
<path d="M5.47074 0C2.45418 0 0 2.45418 0 5.47074C0 6.48994 0.282321 7.48459 0.81663 8.34751L5.15934 15.3457C5.24252 15.4798 5.38908 15.5612 5.5467 15.5612C5.54791 15.5612 5.5491 15.5612 5.55031 15.5612C5.7093 15.56 5.85616 15.476 5.93782 15.3396L10.1698 8.27359C10.6747 7.42891 10.9415 6.4597 10.9415 5.47074C10.9415 2.45418 8.48731 0 5.47074 0ZM9.38737 7.80548L5.5398 14.2296L1.59159 7.86711C1.14685 7.14887 0.905712 6.32023 0.905712 5.47074C0.905712 2.95694 2.95694 0.905712 5.47074 0.905712C7.98455 0.905712 10.0327 2.95694 10.0327 5.47074C10.0327 6.29503 9.8075 7.10249 9.38737 7.80548Z" fill="#62D33E"/>
<path d="M5.47072 2.73535C3.96244 2.73535 2.73535 3.96244 2.73535 5.47072C2.73535 6.96937 3.94247 8.2061 5.47072 8.2061C7.01782 8.2061 8.2061 6.9529 8.2061 5.47072C8.2061 3.96244 6.97901 2.73535 5.47072 2.73535ZM5.47072 7.30038C4.45994 7.30038 3.64106 6.47877 3.64106 5.47072C3.64106 4.4652 4.4652 3.64106 5.47072 3.64106C6.47625 3.64106 7.29734 4.4652 7.29734 5.47072C7.29734 6.46406 6.49752 7.30038 5.47072 7.30038Z" fill="#62D33E"/>
</svg>
