<svg width="15" height="11" viewBox="0 0 15 11" fill="none" xmlns="http://www.w3.org/2000/svg">
<path d="M13.5329 0.528809H0.731527C0.329169 0.528809 0 0.857977 0 1.26031V9.30693C0 9.70924 0.329169 10.0385 0.731527 10.0385H13.533C13.9353 10.0385 14.2645 9.70929 14.2645 9.30693V1.26031C14.2645 0.857977 13.9353 0.528809 13.5329 0.528809ZM13.2584 1.0774L7.55303 5.3568C7.45045 5.43486 7.29298 5.4837 7.1322 5.48297C6.97145 5.4837 6.81401 5.43486 6.7114 5.3568L1.00601 1.0774H13.2584ZM10.2108 5.63916L13.3197 9.47961C13.3228 9.48346 13.3267 9.48638 13.33 9.48986H0.934489C0.937777 9.48621 0.941621 9.48346 0.944742 9.47961L4.05367 5.63916C4.14892 5.52139 4.13087 5.34874 4.01288 5.25327C3.89512 5.15801 3.72247 5.17607 3.62718 5.29386L0.548624 9.09681V1.42031L6.3824 5.79565C6.60169 5.95897 6.86848 6.03085 7.13217 6.03157C7.39551 6.03101 7.66252 5.95913 7.88195 5.79565L13.7157 1.42031V9.09676L10.6372 5.29386C10.542 5.17609 10.3691 5.15798 10.2515 5.25327C10.1336 5.34852 10.1155 5.52139 10.2108 5.63916Z" fill="#62D33E"/>
</svg>
