<svg width="28" height="28" viewBox="0 0 28 28" fill="none" xmlns="http://www.w3.org/2000/svg">
<circle cx="14" cy="14" r="14" fill="#62D33E"/>
<path d="M11.8649 14.1881C10.6834 14.1881 9.72887 15.1426 9.74633 16.3124C9.75797 17.0632 10.1712 17.7151 10.7794 18.0789C10.5728 17.7617 10.4506 17.3863 10.4447 16.9818C10.4273 15.8119 11.3818 14.8574 12.5633 14.8574C12.7961 14.8574 13.0202 14.8952 13.2297 14.9622V12.6195C13.0114 12.5875 12.7874 12.5701 12.5633 12.5701C12.5516 12.5701 12.5429 12.5701 12.5313 12.5701V14.2928C12.3218 14.2259 12.0977 14.1881 11.8649 14.1881Z" fill="#62D33E"/>
<path d="M16.9719 7.16333H16.9544H16.3491C16.5237 8.03926 17.0155 8.80171 17.7023 9.3197C17.2512 8.72313 16.9777 7.97815 16.9719 7.16333Z" fill="#62D33E"/>
<path d="M20.5336 10.7281C20.3038 10.7281 20.0826 10.7048 19.8643 10.6641L16.2849 11.1239L12.5309 20.6136C12.3127 20.6456 12.0886 20.6631 11.8645 20.6631C10.8693 20.6631 9.92059 20.3401 9.14941 19.7435C9.23672 19.8483 9.32984 19.9501 9.43169 20.0491C10.2698 20.8755 11.3814 21.3324 12.5658 21.3324C12.7899 21.3324 13.014 21.315 13.2323 21.2829C14.1635 21.1462 15.022 20.7184 15.7 20.0491C16.5323 19.2255 16.9921 18.1342 16.9979 16.9702L16.9543 11.7932C17.35 12.0987 17.7836 12.3548 18.2521 12.5498C18.9768 12.8554 19.745 13.0125 20.5336 13.0125" fill="#62D33E"/>
<path d="M9.42264 13.8596C10.252 13.0361 11.3549 12.5792 12.5306 12.5704V11.9506C12.3123 11.9186 12.0883 11.9011 11.8642 11.9011C10.6769 11.9011 9.56232 12.358 8.72422 13.1903C7.90067 14.008 7.42923 15.1255 7.43214 16.2866C7.43214 17.4565 7.89485 18.5536 8.73004 19.3829C8.8639 19.5139 9.00068 19.6361 9.14618 19.7467C8.4885 18.9639 8.13056 17.9861 8.12765 16.9559C8.13056 15.7948 8.59908 14.6773 9.42264 13.8596Z" fill="white"/>
<path d="M19.8639 10.6643V10.0415H19.858C19.049 10.0415 18.3041 9.7738 17.7046 9.31982C18.2255 10.0066 18.9879 10.4955 19.8639 10.6643Z" fill="white"/>
<path d="M12.4429 19.0424C12.7193 19.057 12.9842 19.0191 13.2286 18.9406C14.0725 18.6641 14.6807 17.8784 14.6807 16.953L14.6836 13.49V7.16346H16.3482C16.3046 6.9452 16.2813 6.72404 16.2784 6.49414H13.9852V12.8177L13.9823 16.2807C13.9823 17.2061 13.3741 17.9919 12.5302 18.2683C12.2857 18.3498 12.0209 18.3876 11.7445 18.3702C11.3923 18.3498 11.0635 18.245 10.7783 18.0763C11.1363 18.6292 11.7474 19.0046 12.4429 19.0424Z" fill="white"/>
<path d="M12.5304 20.6137C13.4617 20.477 14.3201 20.0492 14.9982 19.3799C15.8305 18.5563 16.2903 17.465 16.2961 16.301L16.2844 11.124C16.6802 11.4295 17.1138 11.6856 17.5823 11.8806C18.3069 12.1861 19.0752 12.3433 19.8638 12.3433V10.6642C18.9879 10.4954 18.2255 10.0065 17.7045 9.3197C17.0178 8.80171 16.5231 8.03926 16.3514 7.16333H14.6839V13.4869L14.681 16.9499C14.681 17.8753 14.0728 18.6611 13.2288 18.9375C12.9844 19.019 12.7196 19.0568 12.4431 19.0394C11.7447 19.0015 11.1365 18.6261 10.7786 18.0761C10.1704 17.7153 9.75712 17.0605 9.74548 16.3097C9.72802 15.1399 10.6825 14.1854 11.864 14.1854C12.0968 14.1854 12.3209 14.2232 12.5304 14.2901V12.5674C11.3548 12.5761 10.2518 13.033 9.42246 13.8565C8.59891 14.6742 8.12747 15.7917 8.13038 16.9499C8.13038 17.9801 8.48832 18.9579 9.14891 19.7407C9.92299 20.3373 10.8688 20.6603 11.864 20.6603C12.0881 20.6632 12.3122 20.6457 12.5304 20.6137Z" fill="white"/>
</svg>
