<svg width="17" height="15" viewBox="0 0 17 15" fill="none" xmlns="http://www.w3.org/2000/svg">
<path d="M8.5 14.5714C8.25798 14.5714 8.02465 14.487 7.84281 14.3335C7.15605 13.755 6.49393 13.2113 5.90977 12.7317L5.90678 12.7292C4.1941 11.3231 2.71513 10.1087 1.6861 8.91252C0.535789 7.57524 0 6.3073 0 4.92216C0 3.57638 0.478981 2.33481 1.34862 1.426C2.22863 0.506449 3.43613 0 4.74908 0C5.73039 0 6.62908 0.298896 7.42012 0.888316C7.81934 1.18584 8.1812 1.54996 8.5 1.97469C8.81893 1.54996 9.18066 1.18584 9.58001 0.888316C10.371 0.298896 11.2697 0 12.251 0C13.5639 0 14.7715 0.506449 15.6515 1.426C16.5211 2.33481 17 3.57638 17 4.92216C17 6.3073 16.4643 7.57524 15.314 8.9124C14.285 10.1087 12.8062 11.3229 11.0937 12.7289C10.5085 13.2093 9.84538 13.7538 9.15706 14.3338C8.97535 14.487 8.74189 14.5714 8.5 14.5714Z" fill="#293895"/>
</svg>
