<svg width="26" height="26" viewBox="0 0 26 26" fill="none" xmlns="http://www.w3.org/2000/svg">
<g clip-path="url(#clip0_239_3396)">
<circle cx="13" cy="13" r="13" fill="white"/>
<path d="M0 12.9847C0 5.82898 5.85033 -0.0219094 13.0066 -0.000552067C14.7134 -0.000552197 16.4034 0.335674 17.9801 0.98892C19.5569 1.64217 20.9895 2.59963 22.1961 3.80662C23.4027 5.01362 24.3597 6.44648 25.0124 8.02338C25.6651 9.60027 26.0007 11.2903 26 12.9969C26.0183 20.1648 20.1436 26.0147 12.9812 25.9995C5.8188 25.9842 0 20.1475 0 12.9847ZM13.029 19.1631L13.0341 19.2261C14.0186 19.1346 15.0052 19.0593 15.9836 18.9464C16.6295 18.8722 17.2693 18.7542 17.8541 18.4308C19.7133 17.3996 20.6847 15.814 20.7874 13.7027C20.8342 12.7325 20.8728 11.7572 20.8281 10.7879C20.785 10.0624 20.6733 9.3425 20.4945 8.63798C20.2656 7.69215 19.6462 6.97414 18.9373 6.33851C18.3494 5.81169 17.6944 5.35912 16.9112 5.22996C15.829 5.053 14.7326 4.93401 13.6372 4.8618C12.8758 4.82266 12.1126 4.84 11.3538 4.91367C10.5789 4.96326 9.80915 5.07515 9.05214 5.24827C7.66889 5.59303 6.67112 6.50123 5.9317 7.68809C5.71808 8.03382 5.56116 8.41149 5.46688 8.8068C5.11352 10.292 5.0138 11.8263 5.17193 13.3447C5.24516 14.0729 5.32144 14.8245 5.55944 15.5089C6.0924 17.0395 7.20815 18.0576 8.69921 18.6617C8.87008 18.7308 8.92907 18.8102 8.92501 18.9902C8.9128 19.4397 8.92501 19.8882 8.9189 20.3377C8.9189 20.6845 9.04197 20.9479 9.36948 21.0903C9.66545 21.2185 9.94007 21.1452 10.2137 20.8635C10.6683 20.3957 11.1291 19.9309 11.5684 19.4499C11.7637 19.2363 11.96 19.1112 12.2672 19.1549C12.5206 19.175 12.7752 19.1777 13.029 19.1631Z" fill="#6F3EA9"/>
<path d="M9.55439 18.9165C9.55439 18.5016 9.55439 18.0856 9.55439 17.6707C9.55439 17.4957 9.5015 17.4134 9.32452 17.3401C7.93619 16.7706 6.9852 15.8329 6.74924 14.2779C6.50507 12.762 6.50679 11.2167 6.75432 9.70133C6.99843 8.26225 8.163 6.89233 9.4781 6.63808C10.3849 6.46673 11.3025 6.35833 12.2243 6.31365C13.6039 6.24351 14.987 6.3374 16.3445 6.59333C17.2762 6.76724 17.9393 7.33168 18.5363 8.01105C19.0276 8.57346 19.1853 9.25486 19.291 9.96677C19.5308 11.5781 19.4805 13.2193 19.1425 14.8129C19.1359 14.8546 19.1261 14.8957 19.113 14.9359C18.6208 16.1909 17.7491 17.0716 16.433 17.3829C15.2206 17.6676 13.9706 17.7347 12.7237 17.7073C12.628 17.7018 12.5324 17.7184 12.4442 17.7558C12.3561 17.7932 12.2777 17.8504 12.2151 17.9229C11.4543 18.7192 10.6834 19.5064 9.91037 20.2915C9.82847 20.3558 9.73855 20.4091 9.64287 20.4502C9.60218 20.357 9.5738 20.2588 9.55845 20.1583C9.5493 19.7464 9.55439 19.3304 9.55439 18.9165ZM13.6533 14.0481C13.5139 14.0189 13.376 13.9825 13.2403 13.9392C12.1642 13.5212 11.5021 12.7188 11.1136 11.656C11.0739 11.5661 11.0649 11.4657 11.0878 11.3701C11.1108 11.2746 11.1645 11.1892 11.2407 11.1272C11.3353 11.0428 11.437 10.9655 11.5337 10.8831C11.8011 10.6533 11.8917 10.338 11.7015 10.0441C11.376 9.53556 11.02 9.05654 10.6569 8.57956C10.5898 8.48276 10.4873 8.41629 10.3715 8.39459C10.2558 8.37289 10.1361 8.39769 10.0385 8.46362C9.71687 8.66175 9.41984 8.89731 9.15365 9.16536C8.85564 9.48166 8.77529 9.87727 9.00719 10.2841C9.05593 10.3828 9.09773 10.4847 9.13229 10.5892C10.2063 13.2873 12.1439 15.0935 14.8362 16.1309C15.2206 16.2794 15.5613 16.254 15.8482 15.9956C16.1229 15.749 16.3643 15.4677 16.5662 15.1586C16.7697 14.8434 16.7117 14.6156 16.4116 14.3847C15.9838 14.0545 15.5451 13.7372 15.0955 13.4328C14.7823 13.2212 14.4659 13.2822 14.2106 13.568C14.1417 13.6639 14.0659 13.7546 13.9838 13.8396C13.8795 13.9176 13.7689 13.987 13.6533 14.047V14.0481ZM13.1244 7.94596C13.0654 7.94596 13.0064 7.94596 12.9464 7.94596C12.7786 7.94596 12.6362 8.02122 12.6565 8.18394C12.6677 8.27547 12.8142 8.37921 12.923 8.42091C13.0612 8.46037 13.2045 8.47921 13.3481 8.47684C14.7182 8.57855 15.9519 9.60268 16.2855 10.9431C16.3801 11.3255 16.3974 11.7282 16.4442 12.1218C16.4645 12.2907 16.5235 12.4351 16.7127 12.4269C16.9019 12.4188 16.9476 12.2835 16.9334 12.1218C16.9171 11.9184 16.8998 11.715 16.8836 11.5116C16.7977 10.5614 16.368 9.67521 15.6752 9.01928C14.9823 8.36335 14.0739 7.98279 13.1203 7.94901L13.1244 7.94596ZM15.9163 11.5787H15.9275C15.9061 11.4282 15.8878 11.2736 15.8614 11.1282C15.7479 10.537 15.4372 10.0018 14.9802 9.61003C14.5231 9.21823 13.9467 8.99299 13.3451 8.97111C13.2316 8.96641 13.1206 9.00535 13.0349 9.07993C12.9016 9.22944 13.0349 9.42267 13.2739 9.45114C13.8414 9.51827 14.3652 9.67794 14.7853 10.0919C14.991 10.2944 15.1538 10.5362 15.2639 10.8031C15.374 11.0699 15.4292 11.3562 15.4261 11.6448C15.4261 11.8259 15.4474 12.0191 15.6681 12.0201C15.9092 12.0201 15.9244 11.8167 15.9163 11.6306C15.9153 11.6154 15.9163 11.594 15.9163 11.5818V11.5787ZM13.6411 10.0319C13.4783 10.0136 13.3207 10.0319 13.2953 10.2281C13.2698 10.4244 13.4234 10.4966 13.6004 10.519C13.6167 10.519 13.634 10.519 13.6502 10.519C13.8204 10.5259 13.9835 10.5885 14.1147 10.697C14.2459 10.8056 14.3378 10.9542 14.3764 11.1201C14.411 11.2411 14.4029 11.3804 14.4629 11.4842C14.4888 11.5314 14.5252 11.5721 14.5693 11.6031C14.6134 11.6341 14.6639 11.6546 14.7172 11.6632C14.7863 11.6632 14.8941 11.5137 14.9002 11.4242C14.914 11.249 14.8918 11.0728 14.8351 10.9065C14.7784 10.7402 14.6884 10.5872 14.5705 10.4568C14.4527 10.3265 14.3094 10.2216 14.1496 10.1485C13.9898 10.0754 13.8168 10.0358 13.6411 10.0319Z" fill="#6F3EA9"/>
</g>
<defs>
<clipPath id="clip0_239_3396">
<rect width="26" height="26" fill="white"/>
</clipPath>
</defs>
</svg>
