<svg width="28" height="28" viewBox="0 0 28 28" fill="none" xmlns="http://www.w3.org/2000/svg">
<circle cx="14" cy="14" r="14" fill="#62D33E"/>
<g clip-path="url(#clip0_3001_531)">
<path fill-rule="evenodd" clip-rule="evenodd" d="M21.2818 16.145C21.2818 16.145 22.791 17.6355 23.1643 18.3252C23.1716 18.3352 23.1772 18.3462 23.1811 18.3579C23.3333 18.6127 23.3706 18.8124 23.2959 18.9599C23.1699 19.2035 22.7434 19.3258 22.5987 19.336H19.9313C19.7455 19.336 19.3591 19.2875 18.8887 18.9627C18.5294 18.7116 18.1719 18.2982 17.8257 17.894C17.3086 17.2939 16.8615 16.7731 16.4089 16.7731C16.3517 16.773 16.2949 16.7824 16.2409 16.8011C15.8983 16.9094 15.4634 17.3975 15.4634 18.6976C15.4634 19.1046 15.1423 19.336 14.9174 19.336H13.6957C13.2794 19.336 11.1122 19.1904 9.19045 17.1642C6.83565 14.6834 4.72072 9.70684 4.70019 9.66297C4.56859 9.34097 4.84485 9.16551 5.14352 9.16551H7.83712C8.19832 9.16551 8.31592 9.38391 8.39805 9.57991C8.49325 9.80484 8.84605 10.7046 9.42472 11.7154C10.3618 13.3599 10.9377 14.0291 11.3978 14.0291C11.4842 14.0294 11.5692 14.0068 11.6442 13.9638C12.2453 13.6334 12.1333 11.4867 12.1053 11.0443C12.1053 10.9584 12.1043 10.0858 11.7963 9.66391C11.5761 9.36151 11.2009 9.24391 10.9741 9.20097C11.0347 9.11324 11.1635 8.97884 11.3287 8.89951C11.7403 8.69417 12.4842 8.66431 13.2225 8.66431H13.6322C14.433 8.67551 14.6402 8.72684 14.9314 8.80057C15.5175 8.94057 15.5287 9.32044 15.4774 10.614C15.4625 10.9836 15.4466 11.3999 15.4466 11.8899C15.4466 11.9944 15.4419 12.1111 15.4419 12.2296C15.4242 12.8932 15.4009 13.6408 15.8694 13.9479C15.9302 13.9858 16.0003 14.0058 16.0719 14.0058C16.2343 14.0058 16.7206 14.0058 18.0394 11.7424C18.6181 10.7428 19.0661 9.56404 19.0969 9.47537C19.123 9.42591 19.2014 9.28684 19.2966 9.23084C19.3643 9.19481 19.4402 9.17681 19.5169 9.17857H22.6855C23.0309 9.17857 23.2651 9.23084 23.3109 9.36151C23.3874 9.57337 23.2959 10.2202 21.8493 12.1764C21.6057 12.5022 21.3919 12.784 21.2043 13.0304C19.893 14.7515 19.893 14.8383 21.2818 16.145Z" fill="white"/>
</g>
<defs>
<clipPath id="clip0_3001_531">
<rect width="18.6667" height="18.6667" fill="white" transform="translate(4.6665 4.66675)"/>
</clipPath>
</defs>
</svg>
