<svg width="28" height="28" viewBox="0 0 28 28" fill="none" xmlns="http://www.w3.org/2000/svg">
<circle cx="14" cy="14" r="14" fill="#62D33E"/>
<path d="M21.1589 10.316C20.9867 9.67627 20.4823 9.172 19.8427 8.99974C18.6741 8.67993 13.9997 8.67993 13.9997 8.67993C13.9997 8.67993 9.32544 8.67993 8.15685 8.98755C7.52954 9.1597 7.01286 9.67638 6.84071 10.316C6.5332 11.4845 6.5332 13.9078 6.5332 13.9078C6.5332 13.9078 6.5332 16.3433 6.84071 17.4996C7.01297 18.1392 7.51723 18.6436 8.15696 18.8159C9.33775 19.1357 13.9998 19.1357 13.9998 19.1357C13.9998 19.1357 18.6741 19.1357 19.8427 18.8281C20.4824 18.6559 20.9867 18.1515 21.159 17.5119C21.4665 16.3433 21.4665 13.9201 21.4665 13.9201C21.4665 13.9201 21.4788 11.4845 21.1589 10.316Z" fill="white"/>
<path d="M12.5127 16.1465L16.3997 13.9077L12.5127 11.6689V16.1465Z" fill="#62D33E"/>
</svg>
