<svg width="14" height="15" viewBox="0 0 14 15" fill="none" xmlns="http://www.w3.org/2000/svg">
<path d="M5.08806 11.0034H1.12791C0.424805 11.0034 0 10.5896 0 9.90508C0 7.96765 0 6.0298 0 4.09153C0 3.41766 0.426724 3.00196 1.11511 3.00196C2.65567 3.00196 4.19623 3.00196 5.73678 3.00196C5.78554 3.00631 5.83442 2.99515 5.87616 2.97014C5.91789 2.94513 5.95024 2.90762 5.96838 2.86319C6.45375 1.98428 6.94253 1.10704 7.43472 0.231465C7.5422 0.0395552 7.69063 -0.0342081 7.86144 0.016426C7.90418 0.0273292 7.94425 0.0464861 7.97929 0.0727664C8.01433 0.0990468 8.04362 0.131918 8.06545 0.169441C8.08727 0.206964 8.10119 0.248378 8.10636 0.291239C8.11154 0.334101 8.10788 0.377542 8.0956 0.418998C7.9299 1.16101 7.75972 1.90176 7.59146 2.64315L7.51149 3.00196H11.8465C12.5503 3.00196 12.9719 3.41704 12.9732 4.10029C12.9732 4.50598 12.9732 4.91293 12.9732 5.33863C13.0903 5.33863 13.1952 5.33863 13.3001 5.33863C13.6999 5.34863 13.9885 5.61743 13.9936 6.00875C14.0013 6.67012 14.0013 7.33149 13.9936 7.99286C13.9885 8.39293 13.6999 8.65923 13.2899 8.66736C13.1901 8.66736 13.0903 8.66736 12.9738 8.66736V9.16745C12.9738 9.43812 12.9789 9.70942 12.9738 9.98009C12.9591 10.5802 12.526 11.0003 11.9156 11.0021C10.7321 11.0065 9.54851 11.0021 8.36558 11.0021C7.85953 11.0021 7.35283 11.0021 6.84678 11.0021C6.80288 10.9979 6.75873 11.0072 6.72052 11.0287C6.68231 11.0503 6.65196 11.0829 6.63373 11.1222C6.11104 11.993 5.5826 12.8606 5.05607 13.7289C5.03432 13.7645 5.01321 13.8014 4.99209 13.8358C4.88717 13.9908 4.72403 14.0433 4.56409 13.9758C4.4862 13.9453 4.42306 13.887 4.38744 13.8127C4.35182 13.7385 4.34636 13.6538 4.37216 13.5757C4.50459 13.0938 4.64214 12.6131 4.77841 12.1317C4.86926 11.811 4.96139 11.491 5.05223 11.1697C5.06311 11.1178 5.0727 11.0659 5.08806 11.0034ZM7.11676 10.3239C7.14095 10.3299 7.16553 10.3343 7.19033 10.337C8.75776 10.337 10.325 10.337 11.892 10.337C12.1575 10.337 12.2816 10.2089 12.2829 9.94821C12.2829 9.51626 12.2829 9.08368 12.2829 8.6511C12.2829 7.12541 12.2829 5.5993 12.2829 4.07278C12.2829 3.80086 12.162 3.67208 11.9099 3.67208C10.4435 3.67208 8.97784 3.67208 7.51149 3.67208C7.39122 3.67208 7.34707 3.71146 7.31956 3.82211C7.1705 4.49848 7.01439 5.17298 6.86149 5.84872C6.85061 5.89623 6.84294 5.94437 6.83142 6.00563H8.91258C8.95033 6.00563 8.98743 6.00563 9.02454 6.00563C9.18832 5.99625 9.33611 6.02501 9.42311 6.17816C9.51012 6.33131 9.45254 6.45571 9.37193 6.58823C8.73217 7.64467 8.0924 8.70195 7.45263 9.76005L7.11676 10.3239ZM5.50199 3.68521C5.48682 3.67725 5.47071 3.67116 5.45401 3.66708C3.98851 3.66708 2.5226 3.66708 1.05625 3.66708C0.813782 3.66708 0.692227 3.80086 0.692227 4.04715C0.692227 6.01625 0.692227 7.98515 0.692227 9.95384C0.692227 10.2039 0.82018 10.3339 1.07609 10.3345C2.44583 10.3345 3.8162 10.3345 5.18594 10.3383C5.21942 10.3422 5.25312 10.333 5.27972 10.3127C5.30632 10.2925 5.32366 10.2628 5.32797 10.2301C5.38811 10.0038 5.45592 9.77881 5.5199 9.55314C5.66385 9.04242 5.8078 8.53171 5.9575 8.00224H5.77965H3.76502C3.37477 8.00224 3.2321 7.76094 3.42083 7.42338L5.42522 3.83211C5.45017 3.7871 5.47192 3.74022 5.50199 3.68521ZM6.87748 2.69628L6.8455 2.68316C5.98245 4.22218 5.12325 5.76121 4.24677 7.32962H4.45469C5.06759 7.32962 5.68048 7.32962 6.29338 7.32962C6.67084 7.32962 6.80519 7.50277 6.70347 7.85909C6.49746 8.58547 6.29082 9.31164 6.08353 10.0376C5.97222 10.4289 5.86346 10.8209 5.75342 11.2122L5.77901 11.2222L8.53832 6.65887C7.81986 6.65887 7.14299 6.65887 6.46675 6.65887C6.15711 6.65887 6.01892 6.48759 6.0829 6.19441C6.24454 5.48303 6.4064 4.77311 6.56848 4.06465C6.67212 3.60874 6.77512 3.15261 6.87748 2.69628ZM13.295 7.99599V6.01H12.9873V7.99599H13.295Z" fill="#828282"/>
</svg>
