<svg width="14" height="15" viewBox="0 0 14 15" fill="none" xmlns="http://www.w3.org/2000/svg">
<path d="M6.94969 0.000976562C9.15333 0.0579072 10.9607 0.854936 12.4161 2.43647C13.1279 3.21688 13.6587 4.1447 13.9706 5.15377C14.0583 5.42704 13.945 5.68607 13.699 5.77261C13.453 5.85914 13.2059 5.73788 13.0943 5.47087C12.936 5.09115 12.7993 4.70003 12.6131 4.33226C12.1006 3.32516 11.3405 2.53041 10.3878 1.92922C9.34386 1.25632 8.12134 0.913504 6.87965 0.945456C5.42706 0.979045 4.13335 1.46125 3.00419 2.37271C2.02958 3.15163 1.31065 4.20454 0.940052 5.39572C0.88311 5.57733 0.791434 5.72763 0.598402 5.78115C0.518584 5.80689 0.433101 5.80948 0.351869 5.78863C0.270636 5.76777 0.196983 5.72431 0.139451 5.6633C0.0783697 5.60655 0.0348118 5.53351 0.0139249 5.4528C-0.00696203 5.3721 -0.0043051 5.2871 0.0215817 5.20785C0.198839 4.61161 0.45365 4.04122 0.779477 3.51132C1.45886 2.40033 2.42347 1.49154 3.57304 0.879416C4.36597 0.447506 5.23451 0.171902 6.13143 0.0675854C6.42297 0.0339963 6.71679 0.0191944 6.94969 0.000976562Z" fill="#828282"/>
<path d="M7.11042 14.585C4.99503 14.5531 3.2566 13.854 1.82622 12.4324C1.00111 11.607 0.391091 10.5919 0.0496369 9.47599C0.029426 9.41867 0.0207651 9.35791 0.0241535 9.29722C0.0275419 9.23652 0.0429126 9.17711 0.0693793 9.12238C0.0958461 9.06766 0.132885 9.01872 0.178361 8.97837C0.223838 8.93803 0.276851 8.90709 0.334346 8.88733C0.574071 8.80023 0.81949 8.91693 0.92654 9.16344C1.11502 9.59726 1.2773 10.0453 1.50222 10.4592C2.01811 11.4077 2.76063 12.1534 3.68081 12.7148C4.7741 13.391 6.04981 13.7125 7.33306 13.6354C8.85113 13.5539 10.1801 13.0034 11.3047 11.9775C12.1016 11.2468 12.6966 10.3231 13.0324 9.29552C13.0472 9.25055 13.062 9.20557 13.0796 9.16174C13.121 9.04912 13.2045 8.957 13.3126 8.90484C13.4207 8.85267 13.5448 8.84456 13.6587 8.88221C13.7169 8.90009 13.7708 8.92943 13.8175 8.96851C13.8641 9.00758 13.9024 9.0556 13.9302 9.10973C13.9579 9.16385 13.9746 9.22299 13.9791 9.28365C13.9836 9.34431 13.9759 9.40525 13.9565 9.4629C13.7154 10.2382 13.3473 10.9681 12.8672 11.6229C12.2298 12.496 11.4028 13.2134 10.4483 13.7213C9.65336 14.1499 8.78351 14.422 7.88596 14.5229C7.59556 14.5548 7.30174 14.5696 7.11042 14.585Z" fill="#828282"/>
<path d="M6.64172 2.52698C6.867 2.55041 7.09754 2.55089 7.31564 2.60206C7.80493 2.7173 8.13974 3.03244 8.30906 3.49916C8.5307 4.08321 8.52319 4.72946 8.28801 5.3082C8.05556 5.88682 7.59927 6.17565 6.98418 6.212C6.73021 6.22682 6.47432 6.21965 6.21891 6.21487C5.98694 6.21104 5.82814 6.0561 5.82432 5.82322C5.80678 4.86682 5.79211 3.91121 5.78031 2.9564C5.77745 2.72113 5.9238 2.56428 6.16295 2.55041C6.32174 2.54085 6.48149 2.55041 6.64124 2.55041L6.64172 2.52698ZM6.59389 5.42918C6.72495 5.42918 6.83304 5.42918 6.94592 5.42918C7.23672 5.42153 7.45004 5.28811 7.55957 5.01697C7.7198 4.6215 7.71693 4.21598 7.58875 3.8143C7.51748 3.59576 7.37925 3.41548 7.14489 3.36766C6.96122 3.33036 6.76991 3.33179 6.59198 3.31697L6.59389 5.42918Z" fill="#828282"/>
<path d="M2.23584 7.71931C2.38698 7.86516 2.54291 8.00623 2.68735 8.15782C2.73668 8.20632 2.77218 8.26709 2.79019 8.33388C2.80819 8.40067 2.80805 8.47105 2.78977 8.53776C2.77149 8.60447 2.73574 8.6651 2.68621 8.71339C2.63668 8.76169 2.57516 8.79589 2.50799 8.81248C2.44436 8.83121 2.37683 8.8322 2.31268 8.81534C2.24853 8.79849 2.1902 8.76443 2.14401 8.71684C1.75563 8.33428 1.36821 7.94885 0.986057 7.55911C0.950887 7.52454 0.922954 7.4833 0.903887 7.43782C0.88482 7.39233 0.875 7.34351 0.875 7.29419C0.875 7.24487 0.88482 7.19605 0.903887 7.15057C0.922954 7.10508 0.950887 7.06385 0.986057 7.02927C1.36869 6.63969 1.75452 6.25363 2.14353 5.87106C2.21716 5.802 2.31475 5.76423 2.4157 5.76573C2.51665 5.76723 2.61307 5.80788 2.68462 5.8791C2.75616 5.95032 2.79724 6.04655 2.79918 6.14747C2.80111 6.24839 2.76376 6.34612 2.695 6.42004C2.54721 6.57498 2.38698 6.71796 2.23201 6.86668L2.25019 6.90398H2.3865C3.51815 6.90398 4.65011 6.90398 5.7824 6.90398C5.85377 6.901 5.92521 6.90776 5.99476 6.92406C6.0834 6.95089 6.1593 7.00896 6.20838 7.08749C6.25746 7.16602 6.27639 7.25968 6.26165 7.3511C6.25112 7.44122 6.20793 7.52437 6.14025 7.58482C6.07256 7.64526 5.98507 7.67882 5.89432 7.67914C5.45572 7.68679 5.0176 7.6844 4.57901 7.6844C3.84562 7.6844 3.11224 7.6844 2.37885 7.6844H2.25306L2.23584 7.71931Z" fill="#828282"/>
<path d="M11.7493 7.68441H11.6106C10.4831 7.68441 6.65721 7.68441 5.52939 7.68441C5.4618 7.6875 5.39408 7.68285 5.32755 7.67054C5.23758 7.64796 5.15887 7.59346 5.10608 7.51719C5.05329 7.44093 5.03001 7.34808 5.04057 7.25594C5.04772 7.16783 5.0855 7.085 5.14736 7.02185C5.20922 6.95869 5.29125 6.91918 5.37921 6.9102C5.43488 6.90557 5.49076 6.90382 5.54661 6.90494C6.67028 6.90494 10.4922 6.90494 11.6158 6.90494H11.7832L11.4609 6.58119C11.4102 6.53051 11.358 6.48125 11.3097 6.42817C11.2382 6.35442 11.1985 6.25558 11.199 6.15286C11.1995 6.05014 11.2403 5.95172 11.3126 5.87872C11.3483 5.84213 11.3909 5.81306 11.4379 5.7932C11.485 5.77335 11.5356 5.76312 11.5867 5.76312C11.6378 5.76312 11.6883 5.77335 11.7354 5.7932C11.7825 5.81306 11.8251 5.84213 11.8607 5.87872C12.0999 6.11112 12.3357 6.3507 12.5724 6.58693C12.7159 6.728 12.8556 6.86716 12.9948 7.01014C13.1646 7.18421 13.167 7.4104 12.9948 7.58398C12.6252 7.95794 12.2532 8.32982 11.8789 8.69963C11.7086 8.86844 11.4709 8.8713 11.3126 8.71541C11.1543 8.55952 11.1586 8.31898 11.3246 8.14874C11.468 8.00193 11.6158 7.86182 11.7617 7.71836L11.7493 7.68441Z" fill="#828282"/>
</svg>
