<svg width="13" height="13" viewBox="0 0 13 13" fill="none" xmlns="http://www.w3.org/2000/svg">
<path d="M11.8574 0.000976562H1.14258C0.512573 0.000976562 0 0.51355 0 1.14355V11.8584C0 12.4884 0.512573 13.001 1.14258 13.001H11.8574C12.4874 13.001 13 12.4884 13 11.8584V1.14355C13 0.51355 12.4874 0.000976562 11.8574 0.000976562ZM12.2383 11.8584C12.2383 12.0684 12.0674 12.2393 11.8574 12.2393H1.14258C0.93261 12.2393 0.761719 12.0684 0.761719 11.8584V1.14355C0.761719 0.933586 0.93261 0.762695 1.14258 0.762695H11.8574C12.0674 0.762695 12.2383 0.933586 12.2383 1.14355V11.8584Z" fill="#828282"/>
<path d="M10.8926 3.03902C9.61572 2.08142 8.09674 1.5752 6.50001 1.5752C4.90328 1.5752 3.3843 2.08142 2.10743 3.03902C2.0266 3.09972 1.97314 3.18998 1.95886 3.29005C1.94467 3.39013 1.97076 3.49179 2.03146 3.57262L4.04198 6.24737C4.11686 6.34695 4.23112 6.39941 4.34677 6.39941C4.42621 6.39941 4.50645 6.37462 4.57498 6.32324C5.13457 5.9036 5.80018 5.68173 6.50001 5.68173C7.19974 5.68173 7.86545 5.9036 8.42504 6.32324C8.59315 6.4494 8.83168 6.41538 8.95794 6.24737L10.9685 3.57262C11.0293 3.49179 11.0553 3.39013 11.0411 3.29005C11.0269 3.19008 10.9734 3.09972 10.8926 3.03902ZM8.56697 5.49983C8.0532 5.18543 7.48072 4.995 6.88087 4.93826V3.77744C6.88087 3.56707 6.71037 3.39658 6.50001 3.39658C6.28964 3.39658 6.11915 3.56707 6.11915 3.77744V4.93826C5.5193 4.995 4.94682 5.18543 4.43305 5.49983L2.87599 3.42831C3.95202 2.71311 5.19715 2.33691 6.50001 2.33691C7.80287 2.33691 9.048 2.71311 10.124 3.42831L8.56697 5.49983Z" fill="#828282"/>
</svg>
