<svg width="15" height="9" viewBox="0 0 15 9" fill="none" xmlns="http://www.w3.org/2000/svg">
<path d="M15 7.48738C15 5.48769 14.2199 3.6077 12.8033 2.19367C11.3867 0.779679 9.50332 0.000976562 7.5 0.000976562C5.49668 0.000976562 3.61327 0.779709 2.19668 2.19367C0.780147 3.6077 0 5.48769 0 7.48738V7.92603H6.00633C6.12601 8.28641 6.36876 8.58817 6.6994 8.78302C6.95013 8.93076 7.22537 9.00098 7.49733 9.00098C8.03657 9.00098 8.56257 8.72468 8.85601 8.22856C8.91331 8.13168 8.95919 8.03026 8.9942 7.92603H15V7.48738ZM8.09918 7.78254C7.90418 8.11229 7.47671 8.22227 7.14627 8.02754C6.98622 7.93323 6.87255 7.78236 6.8262 7.60269C6.77982 7.42301 6.80631 7.23612 6.90082 7.07636C6.99533 6.9166 7.14647 6.80313 7.32645 6.75687C7.38434 6.74198 7.44296 6.73464 7.50117 6.73464C7.62404 6.73464 7.74516 6.7674 7.85373 6.83138C8.01378 6.92569 8.12745 7.07656 8.1738 7.25624C8.22018 7.43588 8.19369 7.62281 8.09918 7.78254ZM9.02757 7.04872C9.02663 7.04495 9.0259 7.04115 9.02493 7.03737C8.95767 6.77664 8.82747 6.54292 8.64738 6.35234L9.91025 4.21711L9.1534 3.77108L7.89053 5.90631C7.63638 5.84101 7.36849 5.84011 7.10722 5.90725C6.6999 6.01197 6.3578 6.26876 6.14396 6.63033C6.06562 6.76281 6.00814 6.90359 5.97164 7.04872H0.89332C0.95168 6.16419 1.18559 5.32685 1.55982 4.57055L2.53573 5.13296L2.97519 4.37321L2.00036 3.81144C2.48212 3.09564 3.1002 2.47857 3.81729 1.99768L4.38015 2.9708L5.14128 2.53214L4.57772 1.5578C5.33537 1.18424 6.1744 0.951369 7.06052 0.893116V2.0188H7.93942V0.893116C8.82554 0.951369 9.66457 1.18424 10.4222 1.5578L9.85866 2.53214L10.6198 2.9708L11.1826 1.99768C11.8997 2.47857 12.5178 3.09564 12.9996 3.81144L12.0248 4.37321L12.4642 5.13296L13.4401 4.57055C13.8144 5.32685 14.0483 6.16419 14.1066 7.04872H9.02757Z" fill="#828282"/>
</svg>
