<svg width="15" height="15" viewBox="0 0 15 15" fill="none" xmlns="http://www.w3.org/2000/svg">
<path d="M10.9538 2.83981L11.3655 2.0544L10.5438 1.62357L10.1327 2.40769C9.46063 2.11267 8.73021 1.92695 7.96385 1.87322V0.928812H9.4567V0.000976562H5.54313V0.928812H7.03598V1.87325C6.26962 1.92695 5.5392 2.1127 4.86711 2.40772L4.45604 1.62361L3.63429 2.05443L4.04603 2.83984C2.17595 3.9997 0.927734 6.07109 0.927734 8.42881C0.927734 12.0527 3.87599 15.001 7.4999 15.001C11.1238 15.001 14.0721 12.0527 14.0721 8.42881C14.0721 6.07109 12.8238 3.9997 10.9538 2.83981ZM7.4999 14.0731C4.3876 14.0731 1.85557 11.5411 1.85557 8.42881C1.85557 5.31651 4.3876 2.78448 7.4999 2.78448C10.6122 2.78448 13.1442 5.31651 13.1442 8.42881C13.1442 11.5411 10.6122 14.0731 7.4999 14.0731Z" fill="#828282"/>
<path d="M7.96397 4.48553H7.03613V8.89275H11.4433V7.96492H7.96397V4.48553Z" fill="#828282"/>
</svg>
