<svg width="13" height="14" viewBox="0 0 13 14" fill="none" xmlns="http://www.w3.org/2000/svg">
<path d="M7.81294 12.3783C7.70574 12.4051 7.59645 12.4288 7.48797 12.4488C7.20438 12.5015 7.01689 12.7742 7.06934 13.0581C7.09525 13.1977 7.17456 13.314 7.28223 13.39C7.3932 13.4681 7.53444 13.5033 7.67836 13.4766C7.80755 13.4526 7.93775 13.4244 8.06551 13.3925C8.34555 13.3228 8.51616 13.0391 8.4463 12.7592C8.3766 12.4791 8.09315 12.3086 7.81294 12.3783Z" fill="#828282"/>
<path d="M11.678 5.37346C11.7146 5.48378 11.7845 5.57385 11.8728 5.63608C12.0037 5.72827 12.175 5.75929 12.3384 5.70525C12.6125 5.61426 12.7609 5.31877 12.6703 5.04488C12.629 4.92002 12.5832 4.79478 12.5343 4.67282C12.4271 4.40483 12.1231 4.27436 11.855 4.38156C11.5872 4.4887 11.4566 4.79276 11.5639 5.06084C11.6049 5.16334 11.6434 5.26855 11.678 5.37346Z" fill="#62D33E"/>
<path d="M9.51154 11.6322C9.41935 11.6931 9.3242 11.752 9.22835 11.8072C8.97827 11.9514 8.89262 12.2711 9.03681 12.5211C9.07596 12.5891 9.12811 12.6446 9.18816 12.6871C9.34937 12.8005 9.56832 12.8175 9.75061 12.7125C9.86457 12.6468 9.97788 12.5769 10.0877 12.5043C10.3284 12.3452 10.3947 12.021 10.2355 11.7802C10.0764 11.5392 9.75234 11.4731 9.51154 11.6322Z" fill="#62D33E"/>
<path d="M12.995 6.8331C12.9836 6.54465 12.7407 6.32014 12.4521 6.3314C12.164 6.34277 11.9393 6.58581 11.9506 6.87415C11.9549 6.98439 11.9561 7.09628 11.9535 7.20641C11.9495 7.3873 12.0379 7.54854 12.1754 7.64546C12.2573 7.70313 12.3567 7.73804 12.4645 7.7405C12.753 7.7469 12.992 7.51811 12.9984 7.22952C13.0013 7.09793 13.0002 6.9646 12.995 6.8331Z" fill="#62D33E"/>
<path d="M11.5925 10.2574C11.3611 10.0838 11.0339 10.1309 10.8607 10.3618C10.7943 10.4502 10.7245 10.5376 10.6529 10.6217C10.466 10.8413 10.4924 11.1712 10.712 11.3583C10.7246 11.3689 10.7372 11.3787 10.7503 11.3879C10.9687 11.5418 11.2722 11.5064 11.4488 11.2992C11.5342 11.1989 11.6175 11.0946 11.6967 10.989C11.87 10.7581 11.8231 10.4307 11.5925 10.2574Z" fill="#62D33E"/>
<path d="M12.361 8.36825C12.0856 8.2819 11.7923 8.4352 11.706 8.7106C11.673 8.81581 11.6364 8.92153 11.5969 9.02506C11.5101 9.25298 11.5932 9.50375 11.7838 9.63814C11.8188 9.6627 11.8573 9.68352 11.8991 9.69934C12.1687 9.80223 12.4707 9.66695 12.5735 9.3972C12.6204 9.2741 12.6639 9.14832 12.7033 9.02324C12.7895 8.74779 12.6363 8.4546 12.361 8.36825Z" fill="#62D33E"/>
<path d="M5.53306 12.4535C5.06582 12.3696 4.61762 12.2267 4.1926 12.0275C4.18757 12.0248 4.18307 12.0219 4.17779 12.0195C4.07764 11.9723 3.97765 11.9218 3.88074 11.8691C3.8804 11.8687 3.87978 11.8684 3.87925 11.8682C3.70144 11.7703 3.5279 11.6619 3.35931 11.5432C0.900935 9.81149 0.309843 6.40254 2.0417 3.9442C2.41829 3.40983 2.87402 2.96403 3.38209 2.61069C3.38834 2.60633 3.3946 2.602 3.40081 2.59761C5.19116 1.36401 7.62218 1.28087 9.52324 2.54851L9.11494 3.13846C9.00143 3.30266 9.07126 3.42232 9.26998 3.40444L11.0436 3.24566C11.2425 3.22777 11.3615 3.05566 11.308 2.86351L10.8317 1.14752C10.7784 0.955147 10.6419 0.93212 10.5283 1.0963L10.119 1.68764C8.72391 0.751121 7.05059 0.394012 5.38974 0.682013C5.22246 0.710964 5.05753 0.746398 4.89486 0.787645C4.8936 0.787869 4.89259 0.788008 4.89159 0.788232C4.8853 0.789769 4.87893 0.791809 4.87281 0.793513C3.44063 1.1613 2.19107 1.9966 1.29943 3.1884C1.29191 3.19731 1.28417 3.20603 1.27707 3.21573C1.24742 3.25566 1.218 3.29652 1.18919 3.33737C1.14207 3.40433 1.09563 3.47296 1.0512 3.54159C1.04563 3.54987 1.04139 3.55828 1.03652 3.56663C0.300733 4.70682 -0.0541679 6.02498 0.0066962 7.36695C0.00683592 7.37137 0.00658442 7.37581 0.0066962 7.38034C0.0125926 7.51143 0.0229881 7.64433 0.0371003 7.77517C0.0378548 7.78361 0.0397272 7.7916 0.0411523 7.80004C0.0557396 7.93161 0.0740436 8.06348 0.0969864 8.19533C0.330159 9.54054 0.964734 10.751 1.91562 11.6929C1.91782 11.6951 1.92012 11.6975 1.92235 11.6998C1.92313 11.7007 1.924 11.7011 1.92475 11.7019C2.18023 11.9539 2.45811 12.187 2.75732 12.3977C3.54034 12.9495 4.41225 13.3142 5.34863 13.4822C5.63274 13.5333 5.90415 13.3441 5.95512 13.0602C6.00606 12.776 5.8171 12.5044 5.53306 12.4535Z" fill="#828282"/>
<path d="M6.17984 2.86261C5.94614 2.86261 5.75684 3.05208 5.75684 3.28545V7.49807L9.60962 9.48973C9.67163 9.52184 9.73803 9.53696 9.80337 9.53696C9.95639 9.53696 10.1042 9.45363 10.1793 9.30823C10.2865 9.10071 10.2054 8.84577 9.99789 8.7386L6.60237 6.98315V3.28545C6.60234 3.05208 6.41327 2.86261 6.17984 2.86261Z" fill="#828282"/>
</svg>
