<svg width="15" height="16" viewBox="0 0 15 16" fill="none" xmlns="http://www.w3.org/2000/svg">
<path d="M11.8277 5.34447H11.3663L11.9255 3.32597C12.1075 2.66905 11.9752 1.98113 11.5626 1.43861C11.1499 0.896001 10.5223 0.584839 9.84062 0.584839H5.16086C4.47921 0.584839 3.85155 0.896001 3.43891 1.43858C3.02623 1.98113 2.89396 2.66905 3.07595 3.32594L3.6352 5.34444H3.17383C2.13994 5.34444 1.29883 6.18555 1.29883 7.21944V12.8444C1.29883 14.3555 2.52815 15.5848 4.0392 15.5848H10.9623C12.4733 15.5848 13.7027 14.3555 13.7027 12.8444V7.21944C13.7027 6.18558 12.8615 5.34447 11.8277 5.34447ZM12.8373 12.8445C12.8373 13.8784 11.9962 14.7195 10.9623 14.7195H4.0392C3.00531 14.7195 2.1642 13.8784 2.1642 12.8445V7.21947C2.1642 6.66277 2.6171 6.20984 3.17383 6.20984H4.20405C4.33923 6.20984 4.46661 6.14667 4.54844 6.0391C4.63026 5.93149 4.65713 5.79189 4.62104 5.66161L3.90991 3.09488C3.80072 2.70072 3.88009 2.28795 4.12771 1.96244C4.37529 1.63692 4.75188 1.45021 5.16086 1.45021H9.84062C10.2496 1.45021 10.6262 1.63689 10.8738 1.96244C11.1214 2.28795 11.2008 2.70072 11.0916 3.09488L10.3805 5.66161C10.3444 5.79189 10.3713 5.93152 10.453 6.0391C10.5349 6.1467 10.6623 6.20984 10.7974 6.20984H11.8277C12.3844 6.20984 12.8373 6.66274 12.8373 7.21947V12.8445Z" fill="#828282"/>
<path d="M10.2644 2.42551C10.0718 2.17232 9.77893 2.0271 9.46085 2.0271H5.53954C5.22143 2.0271 4.92855 2.17232 4.73595 2.42548C4.54339 2.67869 4.48166 2.99973 4.56656 3.30626L5.28313 5.89265C5.33508 6.08006 5.50564 6.20981 5.70015 6.20981H9.30027C9.49475 6.20981 9.66531 6.08006 9.71726 5.89268L10.4338 3.30629C10.5187 2.99973 10.457 2.67869 10.2644 2.42551ZM9.5998 3.07522L8.97109 5.34444H6.02921L5.40053 3.07525C5.38392 3.01528 5.40858 2.97069 5.42473 2.94942C5.44087 2.92815 5.47728 2.8925 5.53951 2.8925H9.46082C9.52305 2.8925 9.5594 2.92812 9.57561 2.94939C9.59178 2.97066 9.61642 3.01525 9.5998 3.07522Z" fill="#828282"/>
</svg>
