<svg width="12" height="13" viewBox="0 0 12 13" fill="none" xmlns="http://www.w3.org/2000/svg">
<path d="M3.80859 5.54845H2.9014L3.38753 4.65098C3.48161 4.4773 3.40533 4.26616 3.21721 4.1793C3.02909 4.09244 2.8003 4.16284 2.70622 4.33652L1.9445 5.74277C1.88547 5.85173 1.89179 5.98117 1.96118 6.08481C2.03058 6.18845 2.15316 6.25155 2.28517 6.25155H3.19235L2.70622 7.14902C2.61215 7.32269 2.68842 7.53384 2.87654 7.6207C3.06505 7.7077 3.29364 7.6368 3.38753 7.46348L4.14925 6.05723C4.20829 5.94827 4.20196 5.81882 4.13257 5.71518C4.06318 5.61154 3.94059 5.54845 3.80859 5.54845Z" fill="#62D33E"/>
<path d="M6.0937 0.95459C6.0937 0.760434 5.92318 0.603027 5.71284 0.603027H0.380859C0.170523 0.603027 0 0.760434 0 0.95459V12.2515C0 12.4456 0.170523 12.603 0.380859 12.603H3.42773C3.572 12.603 3.70386 12.5278 3.7684 12.4087L4.18945 11.6313L4.61051 12.4087C4.67505 12.5278 4.8069 12.603 4.95117 12.603H11.0449C11.2553 12.603 11.4258 12.4456 11.4258 12.2515C11.4258 11.9112 11.4258 9.78148 11.4258 9.43896C11.4258 8.06907 10.2298 6.95459 8.75977 6.95459H7.23633C6.60634 6.95459 6.09375 6.48146 6.09375 5.8999C6.09372 5.41507 6.0937 1.44706 6.0937 0.95459ZM3.19234 11.8999H0.761719V11.1968H3.5732L3.19234 11.8999ZM5.18657 11.8999L4.80571 11.1968H10.6641V11.8999H5.18657ZM7.23633 7.65771H8.75977C9.8098 7.65771 10.6641 8.45677 10.6641 9.43896V10.4937H0.761719V2.7124H1.14258C1.35291 2.7124 1.52344 2.555 1.52344 2.36084C1.52344 2.16668 1.35291 2.00928 1.14258 2.00928H0.761719V1.30615H5.33223V2.00928H4.95117C4.74084 2.00928 4.57031 2.16668 4.57031 2.36084C4.57031 2.555 4.74084 2.7124 4.95117 2.7124H5.33223L5.33226 5.8999C5.33229 6.86916 6.1863 7.65771 7.23633 7.65771Z" fill="#62D33E"/>
</svg>
